<svg width="140" height="40" viewBox="0 0 140 40" fill="none" xmlns="http://www.w3.org/2000/svg">
<g clip-path="url(#clip0_15_355)">
<path d="M95.7155 34.4053C95.7545 33.6822 95.5592 33.0733 95.1687 32.4643C94.7392 31.8554 94.5439 31.2084 94.8563 30.4853L94.8954 30.333C95.0906 29.686 95.0125 29.0771 94.5049 28.5823C94.1534 28.2017 94.0362 27.7831 94.1534 27.2883C94.3096 26.6413 94.2315 26.0324 93.841 25.4615C93.4895 24.9667 93.4505 24.3958 93.7238 23.7869C93.9581 23.2921 94.1143 22.7212 94.2705 22.1884C94.3877 21.7697 94.3877 21.313 94.2315 20.9324C94.1143 20.5899 94.1534 20.2854 94.2315 19.981C94.3096 19.6384 94.3487 19.2959 94.4268 18.9153C94.4658 18.6489 94.3877 18.4206 94.1534 18.2303C93.88 18.0019 93.8019 17.6974 93.841 17.3549C93.88 16.9743 93.9581 16.5557 93.7629 16.1751C93.7238 16.099 93.7629 16.0228 93.7629 15.9087C93.8019 15.2236 93.6457 14.5766 93.3724 13.9677C93.2162 13.6251 93.1381 13.2445 93.1771 12.8259C93.2552 12.0647 93.2162 11.3035 93.0599 10.5804C92.9037 9.78116 92.6694 8.98192 92.5132 8.18269C92.4351 7.91627 92.3961 7.6118 92.4351 7.34539C92.4742 6.7745 92.5523 6.20362 92.6304 5.63273C92.7085 4.94767 92.9037 4.30067 93.2162 3.65367C93.4895 3.04472 93.7629 2.43578 94.0362 1.82683C94.1143 1.59848 94.2315 1.37013 94.2705 1.14177C94.3486 0.875359 94.3487 0.570888 94.1534 0.304475C93.9191 -0.0380563 93.6067 -0.114174 93.2943 0.190298C93.0599 0.418652 92.8256 0.685064 92.6304 0.989536C92.318 1.56042 91.9275 2.09325 91.4588 2.58801C91.1464 2.93055 90.9902 3.34919 90.9902 3.8059C90.9512 4.71932 90.7559 5.55661 90.053 6.24168C89.8577 6.43197 89.7015 6.66033 89.5453 6.88868C89.3891 7.11703 89.2329 7.34539 89.1548 7.6118C88.9595 8.22074 88.7252 8.79163 88.6081 9.40057C88.4519 10.2379 88.2566 10.9991 88.0223 11.7983C87.827 12.4453 87.5146 13.0162 87.046 13.4729C86.7336 13.7774 86.5383 14.1199 86.3821 14.5385C86.2259 14.9952 86.0697 15.49 85.9526 15.9848C85.8745 16.2131 85.8354 16.4415 85.8354 16.6698C85.7182 17.7355 85.6401 18.8392 85.523 19.9049C85.4839 20.1713 85.523 20.4377 85.3277 20.666L85.2496 20.5899C84.9763 20.2093 84.9372 19.7526 84.8982 19.2959C84.781 18.2303 84.6639 17.1265 84.742 16.0609C84.742 15.7184 84.742 15.4139 84.742 15.0714C84.742 14.8049 84.6248 14.6147 84.4295 14.4624C84.3514 14.3863 84.2733 14.3482 84.1952 14.2721C84.1952 14.0818 84.2343 13.8535 84.2343 13.6632C84.2733 13.1684 84.1952 12.7498 83.8828 12.3311C83.7657 12.1789 83.7266 11.9505 83.7266 11.7602C83.7266 11.2655 83.7657 10.8088 83.8047 10.314C83.8438 9.89534 83.6876 9.59087 83.4142 9.32446C83.3361 9.24834 83.258 9.21028 83.1799 9.13416C83.1018 9.01998 82.9846 8.86775 82.9846 8.71551C83.0237 8.2588 83.0627 7.76404 83.1408 7.30733C83.2189 6.9648 83.3752 6.62227 83.4923 6.24168C83.6876 5.59467 83.8828 4.94767 84.039 4.30067C84.1171 3.95814 83.9609 3.72978 83.6485 3.61561C83.3751 3.50143 83.1408 3.53949 82.9065 3.8059C82.516 4.30067 82.1646 4.83349 81.8521 5.36632C81.6959 5.59467 81.6569 5.89915 81.5788 6.16556C81.4616 6.62227 81.3445 7.07897 80.993 7.45956C80.6025 7.84015 80.4072 8.29686 80.251 8.79163C80.212 8.86775 80.1729 8.94386 80.1339 9.05804C79.8996 8.4491 79.7824 8.41104 79.2747 8.52522C79.2747 8.4491 79.2357 8.37298 79.2357 8.29686C79.0795 7.95433 78.8061 7.91627 78.5718 8.18269C78.4546 8.29686 78.3375 8.41104 78.2984 8.56328C78.1032 9.0961 77.9079 9.62893 77.7517 10.1998C77.5955 10.7326 77.5174 11.3035 77.3612 11.8744C77.0097 13.0923 76.7754 14.3102 76.2287 15.49C76.1506 15.6422 76.1506 15.7945 76.1116 15.9467C75.9553 16.784 75.9944 17.5833 76.1506 18.4206C76.3459 19.4101 76.3459 20.3616 76.1897 21.3511C76.0725 21.9981 75.721 22.4929 75.2915 22.9496C74.6276 23.6727 74.3542 24.548 74.4323 25.5376C74.4714 25.9943 74.5885 26.451 74.7838 26.9077C75.1353 27.6689 75.2524 28.4301 74.94 29.2293C74.901 29.3435 74.8619 29.4957 74.8229 29.648C74.7838 29.9905 74.7447 30.333 74.94 30.7136C75.0181 30.9039 75.0572 31.1323 75.0962 31.3606C75.0962 32.236 75.0962 33.1113 75.0962 33.9867C75.0962 34.1389 75.1353 34.2912 75.1743 34.4434C75.2524 34.6717 75.3696 34.824 75.6039 34.9001C75.8772 34.9762 76.0334 34.7859 76.1506 34.6337C76.3849 34.3292 76.5411 33.9867 76.5802 33.568C76.6583 32.8449 76.8926 32.1979 77.1659 31.5509C77.2831 31.2464 77.3612 30.9039 77.3612 30.5994C77.4003 29.9524 77.244 29.3435 77.1269 28.7345C77.0878 28.5823 77.0878 28.4301 77.0878 28.2778C77.205 27.5547 77.5174 26.8696 78.0641 26.3749C78.5328 25.9562 78.728 25.4995 78.6499 24.8906C78.6499 24.7383 78.6499 24.5861 78.6109 24.4719C78.5328 24.0533 78.5718 23.6346 78.689 23.216C78.8061 22.6451 78.9623 22.0362 79.0404 21.4653C79.1185 20.4757 79.3138 19.5243 79.5481 18.5728C79.7043 17.9258 79.7043 17.2407 79.47 16.5937C79.2357 15.9467 79.2357 15.2997 79.47 14.6527C79.5871 14.3482 79.6652 14.0057 79.7434 13.6632C79.8605 13.3207 79.9386 12.9401 80.2901 12.5595C80.3291 12.7498 80.3682 12.902 80.3682 13.0162C80.3291 13.4348 80.3291 13.8535 80.251 14.3102C80.212 14.843 80.3291 15.3378 80.8368 15.6422C81.0711 15.7945 81.1883 15.9848 81.2273 16.2512C81.2664 16.5176 81.3835 16.746 81.6178 16.8601C82.1646 17.0885 82.2427 17.5452 82.2817 18.0019V18.1161C82.3989 18.9534 82.5551 19.7907 82.9846 20.5899C83.1799 20.8944 83.1799 21.313 83.258 21.6556C83.297 21.8839 83.297 22.1503 83.3752 22.3787C83.5704 22.7973 83.5314 23.254 83.4923 23.6727C83.4142 24.6242 83.6485 25.157 84.5076 25.3473C84.7029 25.3853 84.8201 25.4995 84.8591 25.7279C84.8982 25.9562 84.8982 26.1465 84.9372 26.3749C85.0153 26.9458 85.0934 27.4786 85.4449 27.9353C85.6401 28.2017 85.9135 28.354 86.265 28.2778C86.5774 28.2017 86.8117 27.8972 86.8507 27.5547C86.8898 27.2122 86.9288 26.9077 86.8898 26.5652C86.8507 25.6898 87.1241 24.8906 87.5537 24.1294C87.6708 23.9011 87.788 23.6727 87.827 23.4063C87.9051 22.9496 87.9051 22.4929 87.9442 22.0362C87.9832 21.1989 88.1394 20.4377 88.8033 19.8668L88.8814 19.7526C89.5063 18.9534 89.8187 18.04 89.6234 17.0124C89.4672 16.2131 89.5844 15.452 89.8187 14.6908C89.8577 14.5385 89.9358 14.3863 89.9749 14.2341C90.053 14.4244 90.053 14.5766 90.053 14.7288C90.053 15.2236 90.2092 15.6422 90.6388 15.9087C90.7559 15.9848 90.834 16.099 90.9121 16.1751C91.1074 16.4034 91.2245 16.6698 91.1464 17.0124C91.0683 17.3168 90.9902 17.6213 90.8731 17.9258C90.6778 18.4967 90.4044 19.0676 90.3263 19.6765C90.2092 20.5138 90.2482 21.3892 90.5997 22.2265C90.6778 22.3787 90.7559 22.569 90.7559 22.7593C90.795 23.1779 90.795 23.5966 90.7559 24.0152C90.6778 25.4234 91.0683 26.6413 91.9665 27.7069C92.2008 27.9734 92.2399 28.2778 92.1227 28.6204C92.0056 29.1151 91.9275 29.6099 91.8884 30.1047C91.8493 30.6375 92.0837 31.0561 92.6304 31.2464L92.7085 31.3226C92.7085 31.589 92.7085 31.8934 92.7085 32.1598C92.7085 32.5404 92.8256 32.883 93.1381 33.1113C93.3724 33.3016 93.6067 33.4919 93.88 33.6441C94.1534 33.7964 94.2315 33.9867 94.1924 34.2912C94.1534 34.5576 94.1534 34.824 94.1143 35.0904C94.1143 35.3187 94.1534 35.509 94.3877 35.6232C94.583 35.7374 94.7392 35.6232 94.8954 35.509H94.9735L95.0125 35.5852C95.2859 35.8516 95.4421 35.8896 95.6764 35.7374C95.9107 35.6232 95.9498 35.4329 95.8717 35.0904C95.7545 34.824 95.6764 34.5956 95.7155 34.4053Z" fill="#11B0C8"/>
<path d="M25.735 36.0799C25.6569 35.5471 25.4226 35.0904 25.0321 34.6717C24.5634 34.177 24.2901 33.6441 24.251 32.9591C24.212 32.1979 23.7434 31.6651 23.0014 31.3987C22.7671 31.3225 22.6109 31.1703 22.4937 30.98C22.3766 30.7136 22.2204 30.4853 22.1032 30.2188C21.947 29.8763 21.7127 29.648 21.3612 29.6099C20.9707 29.5338 20.8145 29.3054 20.6973 28.9629C20.6583 28.8487 20.6192 28.6965 20.6192 28.5823C20.5021 27.745 20.0335 27.1741 19.2915 26.7555C19.0572 26.6413 18.94 26.451 18.8229 26.2226C18.5886 25.7659 18.3933 25.2712 18.0809 24.8906C17.6123 24.3197 17.0265 23.901 16.2064 24.2436L16.0893 24.2055C15.9721 24.0152 15.894 23.7869 15.7768 23.5585C15.4644 23.0637 15.2692 23.0257 14.7615 23.2921H14.6834C14.6443 23.216 14.6053 23.1018 14.5272 22.9876C14.3319 22.6451 14.1757 22.3026 13.9805 21.96C13.7852 21.6556 13.59 21.3892 13.1604 21.4272C13.0432 21.4272 12.9261 21.3511 12.7308 21.2369C12.9261 21.0847 13.0432 21.0086 13.1994 20.9324C13.59 20.7421 13.9024 20.4757 14.0586 20.0571C14.1367 19.8668 14.2538 19.7526 14.41 19.7146C14.6053 19.6384 14.8396 19.6004 15.0349 19.5623C15.6206 19.5243 16.0112 19.1817 16.2845 18.725C16.5969 18.2683 16.7922 17.7735 16.8703 17.2027C16.9093 16.9363 16.9484 16.6698 17.2608 16.4795C17.417 16.4034 17.4951 16.1751 17.5342 16.0228C17.6123 15.7945 17.6123 15.5661 17.6123 15.3378C17.6123 14.9572 17.6904 14.6147 18.0028 14.3102C18.5495 13.7774 18.6667 13.1304 18.5495 12.4072C18.4324 11.8363 18.3933 11.2655 18.5886 10.6946C18.8619 10.0095 18.6667 9.40057 18.0809 8.94386C17.8856 8.79163 17.8466 8.63939 17.8466 8.41104C17.8466 8.29686 17.8856 8.14462 17.8856 8.03045C17.9247 7.57374 17.9247 7.15509 17.9247 6.69838C17.9247 6.5842 17.8856 6.43197 17.8075 6.35585C17.2999 5.67079 16.8703 5.48049 16.1283 5.70885C15.9721 5.74691 15.8159 5.82302 15.6597 5.82302C15.3863 5.86108 15.3082 5.78497 15.2692 5.51855C15.2692 5.32826 15.2301 5.13796 15.1911 4.94767C15.113 4.56708 14.8787 4.37678 14.4881 4.37678C14.3319 4.37678 14.1757 4.37678 14.0586 4.41484C13.629 4.49096 13.2385 4.41484 12.887 4.14843C12.6527 3.92007 12.3403 3.8059 12.0279 3.65366C11.5202 3.38725 10.9735 3.1589 10.4658 2.89248C10.1534 2.74025 9.80194 2.62607 9.45048 2.62607C9.29427 2.62607 9.09902 2.62607 8.94281 2.62607C8.35704 2.51189 7.92747 2.74025 7.4979 3.04472C7.02928 3.42531 6.52161 3.76784 6.01394 4.11037C5.35006 4.56708 4.60808 4.79543 3.82705 4.52902L3.67084 4.49096C3.35843 4.37678 3.04602 4.49096 2.7336 4.60514C2.34309 4.83349 1.95257 5.17602 1.60111 5.55661C1.40585 5.78497 1.17154 5.86108 0.859128 5.74691C0.585766 5.63273 0.42956 5.67079 0.273354 5.89914C-7.72119e-06 6.39391 -0.234317 7.23121 0.42956 7.84015C0.546715 7.95433 0.624818 8.03045 0.741973 8.14462C1.21059 8.52521 1.24964 8.98192 1.09344 9.51475C1.01533 9.7431 0.937231 9.97145 0.898179 10.1998C0.702921 11.1893 0.781024 12.0647 1.64016 12.7878C1.83542 12.9401 1.95257 13.1304 2.10878 13.2826C2.38214 13.5871 2.53835 13.9676 2.42119 14.3863C2.34309 14.7288 2.30404 15.0714 2.22593 15.3758C2.14783 15.6422 2.14783 15.9087 2.30404 16.137C2.38214 16.2131 2.42119 16.3654 2.38214 16.4415C2.34309 16.7079 2.42119 16.9363 2.53835 17.2027C2.7336 17.4691 2.7336 17.7355 2.6555 18.0019C2.53835 18.4586 2.5774 18.9153 2.88981 19.2959C3.04602 19.4481 3.16317 19.6384 3.31938 19.7907C3.51464 20.0571 3.63179 20.2854 3.51464 20.628C3.39748 21.0086 3.47558 21.3511 3.63179 21.6936C3.98326 22.4548 4.21757 23.254 4.21757 24.0913C4.21757 24.548 4.25662 25.0809 3.98326 25.4995C3.74895 25.8801 3.8661 26.2607 4.13946 26.5271C4.49093 26.9077 4.64713 27.3644 4.84239 27.8592C4.92049 28.0875 4.92049 28.2778 4.76429 28.4681C4.37377 29.0771 4.37377 29.686 4.52998 30.3711C4.64713 30.8278 4.84239 31.2464 5.11575 31.6651C5.31101 31.9315 5.42817 32.236 5.50627 32.5785C5.54532 32.8449 5.66248 33.0733 5.89678 33.2636C5.97489 33.3397 6.05299 33.4158 6.05299 33.4919C6.09204 33.9486 6.2092 34.4053 6.09204 34.9001C5.93584 35.3949 6.05299 35.6613 6.52161 35.8896C6.83402 36.0799 6.95118 36.3083 6.95118 36.6127C6.95118 36.8411 6.95118 37.1075 6.95118 37.3359C6.99023 37.7545 7.10738 38.1351 7.45885 38.4396C7.61506 38.5538 7.77126 38.706 8.00557 38.5918C8.23988 38.5157 8.31798 38.2873 8.31798 38.059C8.31798 37.7926 8.31798 37.5262 8.27893 37.2598C8.23988 36.803 8.27893 36.3463 8.74755 36.0799L8.82565 36.0038C9.33333 35.509 9.41143 34.9762 9.02091 34.3292C8.74755 33.8725 8.6304 33.3777 8.86471 32.8449C8.94281 32.6546 9.02091 32.4263 9.05997 32.1979C9.05997 31.9696 9.05996 31.7412 8.94281 31.5509C8.74755 31.1703 8.51324 30.8278 8.27893 30.4853C7.92747 29.9524 7.69316 29.3815 8.08367 28.7726L8.12273 28.6584C8.51324 28.0114 8.51324 27.3264 8.12273 26.6794C8.00557 26.4891 7.96652 26.2988 8.12273 26.0704C8.39609 25.6898 8.35704 25.3092 8.12273 24.9286C8.00557 24.7003 7.88842 24.4719 7.81031 24.2436C7.65411 23.7869 7.81031 23.5205 8.35704 23.2921C8.59134 23.5205 8.82565 23.7869 9.05997 24.0533C9.45048 24.4339 9.9191 24.5861 10.4268 24.4339C10.8173 24.3197 11.0516 24.4719 11.2469 24.7764C11.4421 25.0809 11.6374 25.3853 11.8326 25.6898C11.9888 25.9182 12.1841 26.1465 12.3794 26.3368C12.6137 26.5271 12.7699 26.5271 13.0042 26.2988C13.3947 25.9182 13.5118 25.9182 13.9024 26.2988C14.0976 26.5271 14.3319 26.6794 14.6834 26.6413C14.9177 26.6032 15.0739 26.7174 15.1911 26.9077C15.3863 27.3644 15.6206 27.7831 15.8159 28.2398C16.0502 28.8107 16.4407 28.9629 16.9874 28.7345C17.0655 28.6965 17.1436 28.6584 17.2218 28.6204C17.5342 28.5062 17.5732 28.5062 17.7685 28.7726C18.0028 29.1532 18.198 29.5338 18.3933 29.9144C18.6276 30.4472 19.0572 30.7517 19.6039 30.8658C19.9554 30.942 20.1116 31.0942 20.2678 31.3606C20.3459 31.5128 20.424 31.627 20.5021 31.7793C20.8145 32.4263 21.205 33.0352 21.986 33.2636L22.1423 33.3397C22.5328 33.6061 22.8842 33.8725 22.9233 34.3673C22.9623 34.862 23.1576 35.3187 23.3529 35.8135C23.47 36.118 23.6653 36.3844 23.9777 36.5366C24.251 36.6889 24.4072 36.8792 24.5244 37.1456C24.6025 37.412 24.7197 37.6403 24.8759 37.9068C25.0321 38.2493 25.3445 38.4396 25.5788 38.4015C25.8131 38.3254 25.9303 38.097 25.9303 37.6784C25.9303 37.4881 25.8131 37.2978 25.8912 37.1456C25.8912 36.8411 25.7741 36.4605 25.735 36.0799ZM12.3794 17.8877C12.3012 17.9258 12.1841 17.9638 12.0669 18.0019C11.8326 18.04 11.5983 18.078 11.364 18.1541C11.0906 18.2303 10.8563 18.3444 10.583 18.4967C10.3877 18.6108 10.2315 18.725 10.0753 18.8773C9.88005 19.1056 9.64574 19.2579 9.33333 19.372C9.21617 19.2959 9.13807 19.1817 9.02091 19.1056C8.51324 18.7631 8.20083 18.725 7.77126 19.0295C7.65411 19.1056 7.53695 19.1817 7.30264 19.2959C7.34169 19.0295 7.34169 18.8392 7.4198 18.687C7.45885 18.5347 7.53695 18.3825 7.61506 18.2683C7.77126 17.8116 7.73221 17.6213 7.30264 17.3549C7.14644 17.2407 7.06833 17.1265 7.06833 16.9363C7.06833 16.6318 7.06833 16.3654 7.06833 16.0609C7.06833 15.6422 6.91213 15.3378 6.48256 15.1475C6.2092 15.0333 6.17015 14.9191 6.24825 14.6527C6.2873 14.4624 6.32635 14.2721 6.3654 14.1199C6.44351 13.5109 6.13109 13.0923 5.66247 12.7117C5.58437 12.6356 5.50627 12.5214 5.50627 12.4453C5.50627 12.0266 5.35006 11.5699 5.54532 11.1513C5.66247 10.8849 5.46722 10.6565 5.27196 10.4662C4.95955 10.1998 4.92049 9.85728 4.9986 9.47669C5.0767 9.17222 5.19386 9.05804 5.50627 9.13416C5.58437 9.13416 5.70153 9.13416 5.77963 9.17222C6.48256 9.40057 7.06833 9.13416 7.576 8.63939C7.65411 8.56327 7.73221 8.48715 7.81031 8.41104C8.08367 8.14462 8.43514 8.03045 8.82565 8.06851C9.05996 8.10656 9.33333 8.14462 9.56764 8.18268C9.88005 8.18268 10.1925 8.18268 10.583 8.18268C11.2859 9.43863 11.5983 9.55281 12.6527 9.17222C12.9261 9.43863 13.1994 9.66698 13.0042 10.1237C12.9261 10.314 13.0042 10.5423 13.1604 10.7326C13.3556 10.961 13.59 11.2274 13.7852 11.4177C13.9414 11.5699 14.1367 11.6841 14.2929 11.8363C14.1757 12.0266 14.1367 12.1028 14.0586 12.2169C13.7852 12.5975 13.7462 12.8259 14.0195 13.1684C14.41 13.5871 14.2148 14.0438 14.1757 14.5005L14.1367 14.6147C13.8633 14.9191 13.59 15.2236 13.3166 15.5281C13.0432 15.8325 12.9651 16.2131 12.887 16.5937C12.848 16.8221 12.848 17.0504 12.8089 17.2788C12.7699 17.4691 12.6527 17.7355 12.3794 17.8877Z" fill="#11B0C8"/>
<path d="M139.727 17.6213C139.531 17.5071 139.336 17.5833 139.141 17.6594C138.633 17.8497 138.126 18.078 137.657 18.3064C137.344 18.4586 137.032 18.6108 136.798 18.8773C136.056 19.6384 135.001 19.9049 134.22 20.5899L134.142 20.628C133.439 20.8944 132.736 21.2369 132.033 21.4272C131.409 21.6175 130.745 21.7317 130.315 22.3406C130.315 22.1884 130.315 22.0742 130.354 21.96C130.471 21.6175 130.432 21.313 130.237 21.0086C130.081 20.7802 129.925 20.5899 129.808 20.3616C129.729 20.2474 129.651 20.1332 129.651 20.019C129.651 19.7526 129.534 19.5243 129.378 19.334C129.261 19.1817 129.183 18.9914 129.183 18.8392C129.144 17.9638 129.144 17.0885 129.144 16.1751C129.144 15.7184 128.948 15.3758 128.519 15.1475C128.402 15.0714 128.285 14.9572 128.245 14.843C128.011 13.9676 127.464 13.2065 127.425 12.2931C127.425 12.1789 127.386 12.1028 127.347 11.9886C127.074 11.2655 126.801 10.5043 126.449 9.78116C126.332 9.47669 126.137 9.21027 125.941 8.94386C125.863 8.82968 125.668 8.71551 125.59 8.75357C125.473 8.79163 125.317 8.94386 125.317 9.0961C125.278 9.32445 125.317 9.59086 125.317 9.81922C125.356 10.5423 125.356 11.3035 125.395 12.0647C124.926 12.1789 124.809 12.4833 124.848 12.8639C124.887 13.3587 124.926 13.8535 125.004 14.3482C125.043 14.6147 125.121 14.9191 125.121 15.1855C125.121 15.7564 125.121 16.2892 125.121 16.8601C125.121 17.4691 125.199 18.078 125.473 18.6489C125.707 19.1056 125.863 19.6004 125.863 20.1332C125.863 20.3996 125.902 20.666 125.863 20.9324C125.863 21.1989 125.941 21.4272 126.176 21.5794C126.332 21.6936 126.488 21.7697 126.722 21.922C126.527 22.607 126.371 23.2921 126.137 23.9772C125.941 24.6242 125.668 25.2712 125.824 25.9562C125.902 26.2988 125.785 26.4129 125.434 26.5271C125.239 26.6032 125.004 26.6413 124.809 26.7174C124.262 26.9077 123.755 27.098 123.247 27.3644C122.817 27.5928 122.778 27.8592 123.091 28.2398L123.169 28.3159L123.13 28.392C123.013 28.4681 122.934 28.5062 122.817 28.5442C122.153 28.8868 121.607 29.3435 121.138 29.9144C120.826 30.295 120.826 30.5233 121.06 30.942C121.372 31.3987 121.372 31.5509 120.943 31.8934C120.474 32.3121 119.967 32.7307 119.459 33.1494C119.225 33.3397 119.029 33.53 118.951 33.8344C118.912 33.9106 118.834 34.0247 118.756 34.0628C118.209 34.2531 117.897 34.6337 117.623 35.0904C117.389 35.509 117.077 35.8516 116.647 36.0419C116.413 36.156 116.179 36.2322 115.944 36.3463C114.929 36.9172 114.07 37.6784 113.25 38.4776C113.054 38.6679 112.937 38.9343 112.82 39.1627C112.703 39.4291 112.664 39.6955 112.898 39.8858C113.133 40.0761 113.406 40.0761 113.718 39.8858L113.914 39.7716C114.499 39.2769 115.085 38.7821 115.71 38.3254C115.944 38.1351 116.179 37.9829 116.452 37.9068C116.96 37.7545 117.506 37.6023 118.053 37.4881C118.639 37.3739 119.146 37.1075 119.576 36.6889C120.123 36.118 120.748 35.5471 121.333 35.0143C121.411 34.9382 121.529 34.824 121.646 34.7859C122.036 34.5576 122.31 34.2531 122.466 33.8725C122.739 33.1874 123.208 32.6166 123.715 32.0457C123.95 31.7793 124.184 31.5509 124.379 31.2845C124.497 31.1323 124.614 30.942 124.692 30.7136C124.848 30.1047 125.199 29.648 125.746 29.3054C126.488 28.8107 127.23 28.3159 127.972 27.8592C128.285 27.6308 128.519 27.3644 128.714 27.0219C128.831 26.7935 128.948 26.6032 129.144 26.4129C129.612 25.8801 130.159 25.5376 130.862 25.3473C131.955 25.0428 132.736 24.3197 133.244 23.3302C133.361 23.0637 133.556 22.9115 133.791 22.7593C133.947 22.6451 134.142 22.569 134.298 22.5309C134.806 22.3406 135.236 22.0362 135.665 21.6936C135.9 21.5033 136.173 21.275 136.446 21.1227C137.305 20.666 138.047 20.1332 138.75 19.4862C139.141 19.1056 139.531 18.725 139.922 18.3064C140.117 18.0019 140.039 17.7735 139.727 17.6213Z" fill="#11B0C8"/>
<path d="M68.3012 25.3092C68.0669 24.7383 67.8326 24.1675 67.8717 23.5205C67.9107 23.0637 67.8717 22.6451 67.8717 22.1884C67.8717 21.8459 67.9107 21.4653 67.9888 21.1227C68.145 20.5138 68.3403 19.9049 68.4965 19.2959C68.5746 19.0295 68.5746 18.7631 68.3793 18.5347C68.106 18.2303 68.0669 17.8497 68.1841 17.4691C68.3012 17.0124 68.4574 16.5557 68.5746 16.099C68.6136 15.9467 68.6527 15.7564 68.6527 15.6042C68.6527 15.3378 68.5355 15.0714 68.2231 14.9572C67.9107 14.843 67.6373 14.9572 67.4421 15.1855C67.2859 15.3378 67.1297 15.5281 67.0516 15.7184C66.8954 16.0609 66.8173 16.4034 66.7392 16.784C66.5439 17.4691 66.3877 18.1922 66.2315 18.9153L66.1924 19.0676C65.841 19.6004 65.7238 20.1713 65.6457 20.7802C65.6067 21.0847 65.4505 21.313 65.138 21.4653C64.7085 21.7317 64.318 22.0362 63.9274 22.3787C63.576 22.7212 63.3026 23.1018 62.9902 23.4824C62.9902 23.216 62.9902 22.9876 63.0293 22.7212C63.1855 21.8839 63.3807 21.0466 63.5369 20.2093C63.615 19.7907 63.6931 19.372 63.7712 18.9534C63.8103 18.725 63.8103 18.4967 63.7322 18.2683C63.6541 18.0019 63.4979 17.7735 63.1464 17.7355C62.834 17.6974 62.6387 17.8877 62.4825 18.1161C62.4435 18.1922 62.4044 18.3064 62.3654 18.3825C61.9749 19.2959 61.5843 20.2474 61.1938 21.2369C61.0767 20.628 60.8033 20.1713 60.1004 20.3616C59.8661 19.981 59.788 19.5623 59.7099 19.1437C59.6318 18.8392 59.4756 18.5728 59.2413 18.3444C59.046 18.1541 58.8507 18.1541 58.6164 18.2303C58.3821 18.3064 58.265 18.4586 58.265 18.725C58.265 18.9534 58.2259 19.1437 58.2259 19.372C58.1869 19.7146 58.1478 20.0951 58.1478 20.4377C58.1478 20.8183 58.1869 21.1989 58.2259 21.5414C58.304 22.0742 57.9526 22.4548 57.6401 22.8735C57.4839 22.569 57.3668 22.3406 57.2496 22.1123C57.1715 21.96 57.2106 21.7317 57.1715 21.5794C57.0934 21.313 57.0153 21.0466 56.9372 20.7422C56.8591 20.4377 56.8201 20.0951 56.742 19.7907C56.7029 19.6384 56.742 19.4862 56.7029 19.334C56.5467 18.6108 56.3514 17.8497 56.3514 17.0885C56.3514 16.8601 56.3124 16.5937 56.2343 16.3654C56.1562 16.099 55.9609 15.9848 55.7657 16.0228C55.4923 16.099 55.258 16.1751 55.1018 16.4034C54.9456 16.6318 54.8284 16.8982 54.7113 17.1646C54.5941 17.431 54.5551 17.7355 54.477 18.04C54.4379 18.2303 54.3208 18.3825 54.0864 18.3444C53.6569 18.3444 53.4616 18.5728 53.3054 18.9153C53.1883 19.1437 53.1102 19.4101 52.993 19.6384C52.6806 20.2474 52.6025 20.8563 52.8368 21.5033C52.9149 21.7317 52.9539 21.96 52.8758 22.1884C52.6025 22.9496 52.4463 23.7869 51.9777 24.51C51.8996 24.6622 51.7824 24.8145 51.7824 24.9667C51.7433 25.2331 51.7043 25.5756 51.8214 25.804C52.0558 26.1846 52.0948 26.5271 52.0948 26.9458C52.0948 27.0219 52.0948 27.1361 52.1339 27.2122C52.212 27.4786 52.4072 27.6689 52.6415 27.6689C52.9149 27.6689 53.0711 27.5547 53.1492 27.2122C53.2273 26.9838 53.3054 26.7555 53.5007 26.5652C53.735 26.3368 53.774 26.0704 53.6569 25.804C53.5788 25.5756 53.6178 25.4234 53.774 25.2331C53.8521 25.1189 53.9693 25.0048 54.0474 24.8525C54.1255 24.7003 54.2036 24.548 54.2036 24.4339C54.2036 23.9391 54.477 23.5966 54.7503 23.254C54.8675 23.3302 54.9065 23.4063 54.9846 23.4443C55.3361 23.5585 55.4532 23.8249 55.5704 24.1294C55.7266 24.5481 55.8047 25.0048 56 25.4234C56.2343 25.9943 56.5076 26.5652 56.781 27.1361L56.8982 27.2883C57.0544 27.4405 57.2106 27.4786 57.4058 27.4025C57.6792 27.3264 57.8354 27.1361 57.8354 26.8696C57.8354 26.2988 57.8354 25.7279 57.7963 25.157C57.7963 24.8525 57.7573 24.51 57.7573 24.1675C58.0697 24.3197 58.1869 24.51 58.1478 24.7764C58.1478 24.8906 58.1478 25.0428 58.1478 25.157C58.0697 25.6518 58.3821 25.9182 58.7336 26.1846C58.8507 26.2988 59.0069 26.2988 59.1241 26.1846C59.4365 25.9182 59.7489 25.6137 59.6708 25.1189C59.6708 25.0048 59.6318 24.8525 59.6708 24.7383C59.788 24.2816 59.7489 23.8249 59.5537 23.4063C59.4756 23.254 59.4756 23.1399 59.5537 22.9496C59.7489 23.1399 59.9832 23.254 60.1004 23.4824C60.4128 23.9391 60.6862 24.3958 60.9595 24.8906C61.1548 25.2712 61.35 25.6518 61.5453 26.0324C61.6625 26.2226 61.8187 26.3749 62.053 26.3749C62.3263 26.3368 62.4825 26.2226 62.5606 25.9562C62.5997 25.804 62.6778 25.6518 62.7168 25.4615L62.8731 25.4995V25.6137C62.9121 26.1846 63.2245 26.5652 63.7712 26.7555C63.9665 26.8316 64.1618 26.9077 64.318 26.9838C65.0209 27.3644 65.841 27.2122 66.3486 26.6032C66.4267 26.4891 66.5049 26.4129 66.622 26.2607C66.6611 26.4891 66.7001 26.6413 66.7392 26.7935C66.8173 27.2122 67.0125 27.5547 67.3249 27.8211C67.5983 28.0875 67.9888 28.1256 68.3403 27.8972C68.6136 27.7069 68.7698 27.4405 68.7698 27.098C68.7308 26.4891 68.5746 25.9182 68.3012 25.3092ZM54.3598 21.5033C54.6332 20.8563 54.8675 20.2093 55.1018 19.6004L55.2189 19.6384C55.2189 19.981 55.1799 20.2854 55.2189 20.628C55.258 20.9324 55.4532 21.1989 55.6095 21.5414H54.3598V21.5033ZM65.7629 24.7383C65.6067 24.8525 65.4895 25.0048 65.3724 25.157C65.138 25.3853 64.8256 25.3473 64.7866 25.0428C64.7475 24.7764 64.8256 24.4719 64.8647 24.1675C64.9037 23.901 65.0209 23.6727 65.3333 23.5585C65.6067 23.4443 65.841 23.1779 66.1534 22.9496C66.2705 23.6346 66.3877 24.2436 65.7629 24.7383Z" fill="#11B0C8"/>
<path d="M47.6039 12.1408C47.2915 12.1789 46.9791 12.2169 46.6666 12.3311C46.3152 12.4833 45.9637 12.6356 45.6904 12.8639C44.7922 13.549 43.933 14.2341 43.0739 14.9191C42.8396 15.1094 42.6834 15.2997 42.371 15.2617C42.0976 15.2236 41.9024 15.3378 41.668 15.49C41.3556 15.7564 41.0432 15.9848 40.7308 16.2512C40.5746 16.3654 40.4184 16.4795 40.2622 16.5557C39.9888 16.6698 39.6764 16.784 39.364 16.8982C39.1687 16.5557 39.1297 16.1751 39.3249 15.8325C39.4031 15.6803 39.4812 15.5281 39.5202 15.3378C39.5983 14.843 39.7155 14.3482 39.4031 13.8915C39.3249 13.7393 39.364 13.549 39.3249 13.3587C39.2859 13.1304 39.364 12.8259 39.2468 12.6356C39.0906 12.2931 39.1297 12.0266 39.2468 11.6841C39.2859 11.5699 39.3249 11.4558 39.364 11.3035C39.5202 10.7707 39.5593 10.1998 39.4421 9.66698C39.3249 9.05804 38.7782 8.86774 38.2706 9.24833C38.1925 9.32445 38.0753 9.40057 37.9972 9.43863C37.4895 9.32445 37.3724 9.32445 37.1381 9.66698C37.0209 9.81922 36.9428 10.0095 36.9428 10.1617C36.9037 10.4282 36.9428 10.6565 36.9428 10.9229C36.9428 11.7222 36.9819 12.5214 36.8647 13.3206C36.6694 14.3102 36.4351 15.3378 36.0837 16.2892C35.9665 16.5937 35.9275 16.8982 35.8494 17.2027C35.7713 17.5071 35.7322 17.7735 35.6541 18.078C35.4979 18.5347 35.3417 18.9534 35.1855 19.4101C35.1464 19.6004 35.1464 19.7907 35.1855 19.9429C35.2245 20.2093 35.3807 20.3996 35.6541 20.5138C35.8884 20.5899 36.0837 20.4757 36.2399 20.2854C36.4351 20.0951 36.5913 19.8668 36.7866 19.6384C36.8647 19.5623 36.9428 19.4862 37.06 19.4101L37.1771 19.4481C37.099 19.6765 37.06 19.9429 36.9819 20.1713C36.9428 20.3616 36.8647 20.5138 36.8647 20.7041C36.8647 21.3511 36.7475 21.9981 36.3961 22.569C36.2399 22.7973 36.1618 23.1399 36.4351 23.3682C36.7085 23.5966 36.6694 23.863 36.6304 24.1294C36.4742 25.0048 36.318 25.8801 36.1227 26.7935C36.0837 26.9458 36.0446 27.098 35.9665 27.2502C35.7322 27.745 35.6541 28.2398 35.5369 28.7726C35.4198 29.3435 35.6931 29.686 36.0056 30.0285C36.2008 30.2569 36.3961 30.2569 36.6304 30.0666C36.8256 29.8763 37.0209 29.648 37.1381 29.3815C37.2943 28.8487 37.4895 28.3159 37.7238 27.8211C37.8019 27.7069 37.8019 27.5547 37.841 27.4025C37.9581 26.8696 38.0753 26.2988 38.1925 25.7659C38.3096 25.2331 38.4268 24.7383 38.5439 24.1675C39.0125 24.3958 39.2468 24.0913 39.4812 23.7869C39.5202 23.7107 39.6374 23.7107 39.7545 23.6346C39.8717 23.901 39.9107 24.1294 40.0279 24.3197C40.145 24.51 40.3403 24.6242 40.5355 24.8145L40.6527 24.9667C41.0042 25.6137 41.4337 26.2988 41.4728 27.0599C41.5118 27.5547 41.7461 27.8972 42.1367 28.1637C42.5662 28.5062 42.8005 28.9629 42.9177 29.4577C43.0739 30.1427 43.4254 30.7136 43.8549 31.2845C44.0502 31.5128 44.1283 31.7793 44.1673 32.0457C44.2064 32.274 44.2064 32.5404 44.3236 32.7307C44.5188 33.0733 44.636 33.4158 44.675 33.8344C44.7141 34.1389 44.9484 34.2911 45.2217 34.2911C45.5342 34.2911 45.6904 34.177 45.7685 33.8344C45.7685 33.7964 45.7685 33.7203 45.8075 33.6441C46.2371 33.6441 46.4714 33.53 46.5104 33.2255C46.5885 32.7688 46.6276 32.3121 46.4714 31.8554C46.3933 31.627 46.3152 31.4367 46.2371 31.2084C45.8075 29.9524 45.3779 28.6584 45.3389 27.2883C45.3389 26.9838 45.1436 26.6413 44.9484 26.3368C44.636 25.8421 44.4017 25.3853 44.3236 24.8145C44.2064 24.0533 43.894 23.7869 43.0739 23.6346C42.7615 23.5966 42.5272 23.4824 42.3319 23.254C41.9024 22.6832 41.4728 22.1123 41.0432 21.5033C40.9651 21.4272 40.9261 21.313 40.887 21.2369C40.7308 21.0086 40.6137 20.7802 40.4574 20.5519C40.145 20.0951 40.3012 19.5623 40.848 19.372C41.1604 19.2578 41.5118 19.1437 41.8243 19.0295C42.7615 18.687 43.3863 18.078 43.6597 17.0885C43.8159 16.5176 44.0892 16.0228 44.7141 15.7945C44.8312 15.7564 44.9484 15.6803 45.0655 15.6042C45.6904 15.3378 46.1199 14.8811 46.3933 14.3102C46.5104 14.0818 46.6666 13.9296 46.8619 13.7774C47.2915 13.4348 47.6429 13.0542 48.0335 12.6736C48.1506 12.5595 48.2287 12.4072 48.1116 12.255C47.9163 12.1789 47.7991 12.1028 47.6039 12.1408Z" fill="#11B0C8"/>
<path d="M113.093 30.6756C113.25 30.4853 113.289 30.2569 113.211 30.0286C113.093 29.648 112.976 29.3054 112.82 28.9629C112.586 28.392 112.43 27.8211 112.547 27.1741C112.703 26.1465 112.469 25.1951 111.844 24.3958C111.57 24.0533 111.492 23.7108 111.531 23.2921C111.57 23.0257 111.57 22.7593 111.414 22.4929C111.063 21.922 110.711 21.3511 110.047 21.0086C109.813 20.8944 109.852 20.628 110.047 20.4757C110.165 20.3996 110.36 20.3616 110.477 20.2854C110.75 20.1332 110.985 20.019 111.219 19.8668C111.492 19.6384 111.805 19.4862 112.156 19.4482C112.312 19.4101 112.43 19.334 112.547 19.2959C112.976 19.0676 113.25 18.725 113.484 18.3064C113.64 18.078 113.679 17.8497 113.64 17.5833C113.64 17.431 113.601 17.2407 113.562 17.0885C113.484 16.8601 113.445 16.5937 113.289 16.4415C113.015 16.137 112.82 15.7564 112.586 15.4139C112.43 15.1855 112.391 15.0333 112.547 14.805C112.781 14.4624 112.664 14.1199 112.351 13.8535C112 13.549 111.609 13.3968 111.141 13.5109C110.75 13.5871 110.399 13.5109 110.047 13.3207C109.501 13.0542 109.149 13.0923 108.759 13.5109C108.368 13.9677 107.978 14.4624 107.626 14.9191C107.548 14.9952 107.509 15.0714 107.431 15.1475C107.197 14.9572 107.236 14.6908 107.197 14.4624C107.119 13.9296 107.079 13.3968 106.962 12.902C106.884 12.5975 106.689 12.4453 106.455 12.4453C106.181 12.4453 105.947 12.6356 105.869 12.9401C105.83 13.0542 105.869 13.2065 105.83 13.3207C105.83 13.7012 105.83 14.0438 105.791 14.4244C105.713 15.1475 105.556 15.8325 105.556 16.5557C105.556 17.3168 105.439 18.078 105.244 18.8392C105.205 19.1056 105.205 19.372 105.244 19.6384C105.283 19.981 105.478 20.2093 105.791 20.3616C106.181 20.5519 106.259 20.8183 106.103 21.1989C106.025 21.4272 105.908 21.6556 105.791 21.8459C105.635 22.2265 105.596 22.6451 105.83 22.9876C106.064 23.4063 106.064 23.7869 105.947 24.2055C105.83 24.5481 105.791 24.9286 105.869 25.3092C105.947 25.7659 105.947 26.2227 105.869 26.6794C105.83 26.8697 105.83 27.0599 105.83 27.2502C105.869 27.4025 105.908 27.5547 106.025 27.6689C106.416 28.0495 107.001 27.9734 107.197 27.4405C107.314 27.1361 107.353 26.7935 107.392 26.4891C107.392 25.9943 107.509 25.5376 107.704 25.0809C107.861 24.7384 107.9 24.3578 107.978 24.0152C108.017 23.7869 108.017 23.5585 108.017 23.4063C108.134 23.4824 108.251 23.5585 108.368 23.6727C108.954 24.1294 109.384 24.7003 109.735 25.3092C109.852 25.5376 110.047 25.7659 110.243 25.9562C110.672 26.3368 110.828 26.8316 110.789 27.4025C110.789 27.6689 110.789 27.9734 110.867 28.2017C111.063 28.6584 111.18 29.1532 111.258 29.648C111.336 30.1047 111.531 30.5233 111.883 30.8658C112.312 31.1323 112.82 31.0942 113.093 30.6756ZM109.696 18.2683C109.579 18.4586 109.384 18.6489 109.227 18.8392C109.11 18.7631 109.032 18.725 108.993 18.687C108.837 18.4206 108.603 18.1541 108.368 17.9258C108.29 17.8497 108.251 17.6594 108.212 17.5071C108.681 17.393 108.915 17.1646 109.071 16.784C109.344 16.137 109.462 16.099 110.36 16.1751C109.735 16.5937 109.735 17.0885 109.852 17.6594C109.891 17.8497 109.813 18.1161 109.696 18.2683Z" fill="#11B0C8"/>
<path d="M113.25 20.4377C112.898 20.5138 112.781 20.7422 112.82 21.0847C112.898 21.4653 113.133 21.6936 113.523 21.6556C113.875 21.6175 114.148 21.7317 114.46 21.8459C114.929 21.9981 115.28 22.4167 115.827 22.3787C115.788 22.4929 115.788 22.569 115.749 22.607C115.515 22.9876 115.437 23.4063 115.437 23.8249C115.437 24.0152 115.319 24.2436 115.202 24.3958C115.046 24.6242 115.007 24.8906 115.085 25.1189C115.124 25.3092 115.202 25.5376 115.319 25.7279C115.437 25.9562 115.437 26.1085 115.358 26.3749C115.124 26.8696 115.046 27.4025 115.358 27.9353C115.398 28.0114 115.437 28.1256 115.437 28.2017C115.398 28.8107 115.437 29.4577 115.28 30.0285C115.046 30.8278 115.046 31.627 115.046 32.4643C115.046 32.8449 115.124 33.2255 115.358 33.53C115.593 33.8344 115.866 33.7964 116.061 33.4919C116.1 33.4158 116.139 33.3397 116.139 33.2636C116.257 32.8449 116.413 32.4643 116.53 32.0457C116.608 31.8173 116.686 31.627 116.725 31.3987C116.842 30.4472 116.96 29.4577 117.038 28.5062C117.077 27.9734 117.194 27.4786 117.506 27.0219C117.584 26.9077 117.662 26.7935 117.662 26.6794C117.702 26.2607 117.741 25.8421 117.584 25.4615C117.506 25.2712 117.506 25.1189 117.623 24.9286C117.936 24.3958 117.936 23.863 117.897 23.254C117.858 22.9876 117.858 22.7212 117.858 22.4548L117.975 22.3787C118.131 22.4548 118.326 22.4929 118.444 22.607C118.951 23.0637 119.576 23.1018 120.162 23.0257C120.513 22.9876 120.748 23.0257 121.021 23.216C121.372 23.4824 121.724 23.5966 122.153 23.5966C122.739 23.6346 122.974 23.4063 123.013 22.8735C123.13 22.7973 123.247 22.7212 123.364 22.607C123.676 22.3406 123.676 22.0362 123.403 21.7697C123.247 21.6175 123.091 21.5033 122.895 21.4272C122.661 21.3511 122.388 21.275 122.114 21.2369C121.919 21.1989 121.802 21.1608 121.646 21.0086C121.411 20.7422 121.099 20.5899 120.709 20.5899C120.435 20.5899 120.162 20.5899 119.888 20.5899C119.498 20.0951 119.42 20.0571 118.717 20.1332C118.404 20.1713 118.131 20.2474 117.78 20.0951C117.858 19.8668 117.897 19.6384 117.975 19.4481C118.248 18.8392 118.444 18.2303 118.561 17.5833C118.678 16.8982 118.834 16.1751 119.186 15.5281L119.225 15.4519C119.303 14.9572 119.303 14.5005 118.873 14.1199C118.522 13.8154 118.522 13.7393 118.756 13.3587C118.99 12.9781 119.264 12.5975 119.459 12.1789C119.576 11.9505 119.693 11.6841 119.732 11.4177C119.771 10.8849 119.42 10.5804 118.873 10.6946C118.404 10.7707 118.092 11.0752 117.897 11.4938C117.741 11.7983 117.623 12.0647 117.467 12.3692C117.077 13.1304 116.686 13.8915 116.608 14.7288C116.569 15.0333 116.452 15.3378 116.335 15.6422C116.179 16.099 116.022 16.5557 116.061 17.0504C116.061 17.393 115.983 17.6974 115.827 18.0019C115.632 18.4206 115.554 18.8392 115.671 19.2959C115.788 19.7907 115.593 19.981 115.085 19.981C114.812 19.981 114.538 20.019 114.304 20.2093C114.109 20.3616 113.874 20.4377 113.601 20.4377C113.484 20.3616 113.367 20.3996 113.25 20.4377Z" fill="#11B0C8"/>
<path d="M33.7016 24.0152C33.1939 24.3958 32.8424 24.3958 32.2957 24.0152C32.1395 23.9011 31.9833 23.7869 31.8271 23.6727C31.5537 23.4824 31.2413 23.4443 30.9679 23.6727C30.8117 23.8249 30.6165 23.7869 30.4212 23.7108C30.1088 23.5585 29.8354 23.5966 29.5621 23.7869C29.3668 23.9011 29.1716 24.0533 28.9373 24.2055C28.6248 24.3578 28.3515 24.2055 28.3515 23.9011C28.3515 23.7869 28.3905 23.6727 28.4296 23.5585C28.5077 23.3682 28.6248 23.1399 28.742 22.9496C28.8982 22.7212 29.0544 22.4548 29.1716 22.2265C29.4449 21.6175 29.3278 21.3511 28.8201 21.0086C28.742 20.9705 28.7029 20.9325 28.5858 20.8563C28.6639 20.2854 29.0154 19.981 29.4059 19.6765C29.9135 19.2579 30.4603 18.8392 30.9289 18.3825C31.2022 18.1161 31.3975 17.8116 31.2023 17.431C31.4756 17.2788 31.749 17.2027 32.0614 17.2027C32.2957 17.2027 32.5691 17.2027 32.8034 17.2027C33.4282 17.1646 33.9749 16.9743 34.3654 16.4795C34.5216 16.2512 34.5997 16.0228 34.4826 15.7564C34.3654 15.5281 34.1311 15.4139 33.8578 15.4139C33.3891 15.452 32.8815 15.452 32.4128 15.49C32.1785 15.5281 32.0223 15.5281 31.8661 15.3378C31.7099 15.1475 31.4756 15.0714 31.2023 15.0714C30.5384 15.1094 29.9526 15.3378 29.4449 15.7564C29.2887 15.8706 29.1325 16.099 29.0935 16.2893C29.0154 16.746 28.7811 16.9743 28.3124 17.0504L28.1172 17.1266C27.258 17.3549 26.9456 17.7355 26.8285 18.5728C26.7894 18.9534 26.7113 19.334 26.5551 19.6384C26.3208 20.0952 26.1646 20.5138 26.1646 21.0086C26.1646 21.3511 26.0084 21.6175 25.7741 21.8459C25.6179 21.9981 25.4226 22.1884 25.3445 22.3787C25.1883 22.6451 25.0711 22.9115 25.0321 23.216C24.954 23.5585 25.2274 23.8249 25.5788 23.8249C25.6569 23.8249 25.696 23.8249 25.8131 23.8249C25.735 23.9772 25.6179 24.0913 25.5788 24.2436C25.5007 24.51 25.3836 24.7383 25.3836 25.0048C25.3445 25.4234 25.5398 25.6137 25.9693 25.6518C26.1646 25.6518 26.3599 25.6518 26.5942 25.6518C27.0237 25.6518 27.1409 25.804 27.0628 26.2227C26.9847 26.6032 27.0628 26.9077 27.3752 27.1361C27.6876 27.3264 27.7267 27.5928 27.7267 27.8972C27.7267 28.0875 27.7657 28.3159 27.8048 28.5062C27.8438 28.6584 27.9219 28.8107 28.0391 28.8868C28.2343 29.0771 28.4686 29.1151 28.6639 28.9248C28.8201 28.7726 28.9763 28.5823 29.0935 28.392C29.2497 28.0875 29.3668 27.745 29.523 27.4786C29.6402 27.2502 29.7964 27.0219 29.9917 26.7935C30.1479 26.6032 30.3431 26.5271 30.6165 26.6413C30.7727 26.7174 31.007 26.6794 31.2023 26.6032C31.3975 26.5271 31.6318 26.3749 31.788 26.2227C32.1004 25.9562 32.4128 25.8801 32.8034 25.9562C33.7016 26.1085 34.5216 25.5376 34.6778 24.6242C34.7169 24.4339 34.6778 24.2055 34.5607 24.0533C34.4435 23.7108 34.1311 23.7108 33.7016 24.0152Z" fill="#11B0C8"/>
<path d="M103.721 21.6556C103.409 21.275 103.331 20.9324 103.526 20.4757C103.682 20.2093 103.799 19.9049 103.877 19.6004C104.073 18.8773 104.073 18.1541 103.682 17.431C103.604 17.2788 103.565 17.1265 103.565 16.9363C103.526 16.5937 103.409 16.2893 103.135 16.0228C102.667 15.5661 102.159 15.1855 101.495 14.9572C100.597 14.6527 99.8159 14.7669 99.113 15.3758C98.6834 15.7564 98.332 16.2512 97.9414 16.7079C97.8243 16.8601 97.7071 16.9743 97.5509 17.0885C96.8871 17.5071 96.3403 18.04 96.2232 18.8392C96.1451 19.2959 95.9889 19.7146 95.6374 20.0952C95.2078 20.5899 95.1688 21.313 95.5593 21.7697C96.0279 22.3787 96.1451 23.0257 96.0279 23.7488C95.9889 24.0152 95.9889 24.3197 95.9498 24.6622C95.9889 24.9286 95.9889 25.2331 96.106 25.5376C96.2232 25.8801 96.4965 26.0704 96.8089 25.9943C97.1604 25.9182 97.4338 26.0704 97.7071 26.2226C97.9414 26.3749 98.1367 26.4891 98.4101 26.5652C98.5663 26.6413 98.6444 26.6794 98.7225 26.8316C98.9568 27.2883 99.2301 27.4405 99.7769 27.3264C100.167 27.2502 100.558 27.098 100.987 27.1741C101.066 27.1741 101.183 27.1741 101.3 27.098C101.729 26.8696 102.198 26.6413 102.55 26.3368C103.135 25.7279 103.721 25.0809 104.19 24.3958C104.502 23.9772 104.697 23.5205 104.58 22.9496C104.385 22.5309 104.073 22.0742 103.721 21.6556ZM100.519 23.1399C100.753 23.5585 100.714 23.5966 100.675 24.0152C100.402 24.0533 100.128 24.0533 99.855 24.0913C99.6597 23.7869 99.4645 23.4824 99.2692 23.216C99.113 22.9876 98.9177 22.7973 98.6053 22.7973C98.371 22.7973 98.2929 22.6832 98.2539 22.4929C98.2148 22.3026 98.1758 22.1123 98.1367 21.922C98.0195 21.3892 98.1367 20.8944 98.5663 20.5138C98.9958 20.1332 99.152 19.7526 99.0739 19.1817C98.9958 18.7631 99.3082 18.4967 99.6988 18.3064C99.6207 18.5728 99.5426 18.8392 99.5035 19.1437C99.3864 19.7146 99.6207 20.1332 100.089 20.4377C100.206 20.5138 100.324 20.5519 100.441 20.628C100.714 20.8183 100.792 20.9705 100.675 21.275C100.636 21.4272 100.558 21.5795 100.48 21.6936C100.285 22.1503 100.285 22.6451 100.519 23.1399Z" fill="#11B0C8"/>
<path d="M23.2748 19.2959C23.2748 18.7631 23.3529 18.2303 23.5481 17.7355C23.7043 17.3549 23.7824 16.9743 23.5872 16.5937C23.3919 16.1751 23.3529 15.7945 23.431 15.3378V15.2236C23.3919 14.8811 23.2357 14.7288 22.9233 14.6908C22.6109 14.6527 22.3375 14.7288 22.1032 14.8811C22.0251 14.9572 21.908 14.9952 21.7908 14.9952C21.2441 14.9572 21.0488 15.1094 21.1269 15.6042C21.205 16.137 21.1269 16.6698 20.9317 17.1646C20.8926 17.2407 20.8926 17.3168 20.8926 17.431C20.8145 17.7355 20.8536 18.0019 21.205 18.1541C21.4003 18.2303 21.4784 18.4206 21.4393 18.6109C21.4003 18.8011 21.3222 18.9534 21.2441 19.1437C21.1269 19.4481 20.9707 19.7146 20.8926 20.019C20.7364 20.5138 20.7755 20.9705 21.2441 21.275C21.4003 21.3892 21.5174 21.5795 21.5174 21.8078C21.5174 22.2265 21.4784 22.6451 21.4393 23.1018C21.4003 23.4063 21.3612 23.6727 21.4784 23.9391C21.5956 24.1675 21.6346 24.4339 21.5565 24.7003C21.4784 25.0048 21.5565 25.3092 21.7127 25.5376C21.8689 25.7659 21.947 26.0324 21.908 26.2988C21.908 26.5652 21.908 26.8316 21.908 27.0599C21.908 27.3644 21.908 27.6689 21.908 27.9734C21.908 28.354 22.0251 28.6965 22.2594 28.9629C22.5718 29.2674 22.9233 29.2293 23.1576 28.8868C23.2357 28.7726 23.2748 28.6965 23.2748 28.5823C23.3138 28.2398 23.3919 27.8972 23.3529 27.5547C23.2748 26.7555 23.3919 25.9562 23.7824 25.2331C23.8605 25.1189 23.8605 24.9667 23.9386 24.8145C24.173 24.2436 24.0949 23.7108 23.8215 23.216L23.7824 23.1399C23.6262 22.8735 23.6262 22.607 23.8215 22.3406C23.9777 22.1123 24.0558 21.8839 24.212 21.6556C24.5635 21.1608 24.4854 20.5519 23.8605 20.1713C23.3529 19.9429 23.2748 19.6765 23.2748 19.2959Z" fill="#11B0C8"/>
<path d="M21.5565 13.1684C21.9079 13.4348 22.2985 13.549 22.728 13.3968C23.1576 13.2445 23.3529 12.902 23.3919 12.4833C23.431 11.9125 23.5091 11.3416 23.6653 10.7707C23.8215 10.1617 23.431 9.78116 22.728 9.85728C22.7671 9.66698 22.8061 9.47669 22.8061 9.32445C22.8842 8.82968 22.4937 8.37298 22.0642 8.41104C21.7127 8.44909 21.4003 8.56327 21.166 8.82968C20.8926 9.13416 20.8145 9.55281 21.0098 9.89534C21.205 10.1998 21.166 10.4282 21.0098 10.6946C20.8536 10.961 20.6973 11.2655 20.6192 11.5699C20.5021 11.9886 20.5411 12.3692 20.8926 12.6736C21.1269 12.7878 21.3612 12.9781 21.5565 13.1684Z" fill="#11B0C8"/>
<path d="M121.451 35.8516V35.9277H121.216V36.5366H121.099V35.9277H120.865V35.8516" fill="#11B0C8"/>
<path d="M121.49 35.8516H121.646L121.841 36.4225L122.075 35.8516H122.192V36.5366H122.114V36.118V36.0419V35.9277L121.88 36.5366H121.802L121.607 35.9277V35.9657V36.0419V36.5366H121.49" fill="#11B0C8"/>
</g>
<defs>
<clipPath id="clip0_15_355">
<rect width="140" height="40" fill="white"/>
</clipPath>
</defs>
</svg>
